# xmcd CD database file
#
# Track frame offsets:
#	150
#	13642
#	24012
#	43658
#	58313
#	75289
#	85251
#	96027
#	108077
#	122214
#	136809
#	151591
#	164806
#	178761
#	193790
#	205488
#	214611
#	227915
#	245566
#	262887
#	277133
#	288191
#
# Disc length: 4033 seconds
#
# Revision: 3
# Processed by: cddbd v1.5.2PL0 Copyright (c) Steve Scherf et al.
# Submitted via: CDex 1.81
#
DISCID=2e0fbf16
DTITLE=Martina McBride - Timeless
DYEAR=2005
DGENRE=Country
TTITLE0=You Win Again
TTITLE1=I'll Be There
TTITLE2=I Can't Stop Loving You
TTITLE3=(I Never Promised You A) Rose Garden
TTITLE4=Today I Started Loving You Again
TTITLE5=You Ain't Woman Enough
TTITLE6=Once A Day
TTITLE7=Pick Me Up On Your Way Down
TTITLE8=I Don't Hurt Anymore
TTITLE9=True Love Ways
TTITLE10='Til I Can Make It On My Own
TTITLE11=I Still Miss Someone
TTITLE12=Heartaches By The Number
TTITLE13=Satin Sheets
TTITLE14=Thanks A Lot
TTITLE15=Love's Gonna Live Here
TTITLE16=Make The World Go Away
TTITLE17=Help Me Make It Through The Night
TTITLE18=Dreaming My Dreams
TTITLE19=Cryin' Time
TTITLE20=Walk On By
TTITLE21=Take These Chains From My Heart
EXTD=YEAR: 2005
EXTT0=
EXTT1=
EXTT2=
EXTT3=
EXTT4=
EXTT5=
EXTT6=
EXTT7=
EXTT8=
EXTT9=
EXTT10=
EXTT11=
EXTT12=
EXTT13=
EXTT14=
EXTT15=
EXTT16=
EXTT17=
EXTT18=
EXTT19=
EXTT20=
EXTT21=
PLAYORDER=
